<svg xmlns="http://www.w3.org/2000/svg" width="216" height="216">
  <rect width="208" height="208" x="4" y="4" rx="40" fill="#b4b4b4" stroke="#a7a7a7"
    fill-opacity=".24" />
  <g>
    <path stroke="#111" fill="#b4b4b4"
      d="M53.38 130.485c.255-1.109.682-2.133 1.194-3.157l12.373-22.699c1.878-3.413 2.902-7.424 2.902-11.178v-4.267c0-6.826-5.632-12.288-12.63-12.288h-.768c-4.693 0-8.362 2.304-10.325 5.12-1.963 2.816-2.304 6.315-2.304 11.52h7.765c0-1.706.086-3.328.342-4.608.341-1.792 1.28-4.181 4.522-4.181h.768c2.39 0 4.267 1.963 4.267 4.437v4.267c0 2.645-.597 5.12-1.877 7.424l-12.374 22.698a23.203 23.203 0 00-2.73 10.838v3.925h25.514v-7.85zM91.044 139.019c7.168 0 12.886-5.547 12.886-12.63V89.526c0-7.083-5.718-12.63-12.886-12.63h-.682c-6.827 0-12.373 5.718-12.373 12.63v36.863c0 6.912 5.546 12.63 12.373 12.63zm0-7.851h-.682c-2.134 0-4.01-2.133-4.01-4.779V89.526c0-2.646 1.876-4.78 4.01-4.78h.682c2.56 0 4.523 2.049 4.523 4.78v36.863c0 2.731-1.963 4.779-4.523 4.779zM138.864 121.184h-3.925V105.91h-8.021v15.275h-7.083L132.55 77.58h-8.448l-12.8 43.69v7.595h15.616v9.472h8.021v-9.472h3.925zM168.082 107.104c2.304-2.048 3.925-4.95 3.925-8.448V89.27c0-6.912-5.461-12.288-12.459-12.288h-.512c-7.082 0-12.458 5.29-12.458 12.288v9.386c0 3.499 1.62 6.4 4.01 8.448-2.474 2.133-4.181 5.12-4.181 8.619v11.008c0 6.912 5.547 12.373 12.63 12.373h.511c6.998 0 12.63-5.461 12.63-12.373v-11.008c0-3.499-1.707-6.486-4.096-8.619zm-13.312-17.75c0-2.644 1.792-4.522 4.266-4.522h.512c2.475 0 4.267 1.878 4.267 4.523v9.557c0 2.56-1.877 4.523-4.267 4.523h-.512c-2.474 0-4.266-1.878-4.266-4.523zm8.96 37.547a4.225 4.225 0 01-4.267 4.267h-.427c-2.304 0-4.181-1.877-4.181-4.267V114.87c0-2.304 1.877-4.096 4.181-4.096h.512c2.304 0 4.182 1.792 4.182 4.096z"
    />
  </g>
</svg>