<svg xmlns="http://www.w3.org/2000/svg" width="512" height="512"><path d="M255.998 69.84q34.987 1.565 54.312 24.02 19.843 21.932 19.843 53.265 2.086 45.43-21.933 86.158-8.353 14.098-22.454 21.933-13.58 7.835-29.768 7.835-20.886-.522-37.595-15.666-16.71-15.667-26.63-41.776-9.926-26.109-9.926-58.484.526-34.466 20.368-55.352 20.364-21.41 53.783-21.932zm0-37.077q-31.332.522-56.394 14.623-24.545 13.577-39.686 39.686-14.623 25.587-15.144 60.053 0 41.775 14.098 76.762 14.097 34.462 39.167 54.83 25.587 20.364 57.96 21.407 34.986-1.043 60.056-21.407 25.058-20.368 38.117-54.83 13.054-34.47 13.054-76.762 1.043-21.933-7.31-42.822-8.352-21.408-24.022-38.117-15.666-16.188-36.03-24.544-20.365-8.879-43.866-8.879zm-162.92 424.02q0-8.879 2.607-20.369 4.702-28.195 37.599-48.563 32.9-20.364 122.714-20.886 89.817.522 123.24 21.411 32.375 20.365 37.077 48.038 2.608 11.49 2.608 20.89v21.933l37.077-.522v-21.411q0-16.71-3.659-30.81-17.752-53.784-64.75-75.195-46.995-21.41-114.88-21.41h-33.418q-68.41 0-115.405 21.41-46.998 21.411-64.23 75.194Q56 440.591 56 456.261v21.407l36.556 1.047q.521-1.568.521-8.357z"/></svg>