<svg xmlns="http://www.w3.org/2000/svg" width="512" height="512"><path d="M456 107.926q-.495 5.964-4.471 9.94-3.973 3.972-9.94 4.471H229.912q-6.459-.499-10.431-4.475-3.976-3.972-3.976-9.94v-6.954q0-5.96 3.976-9.937 4.471-3.976 10.431-3.976h211.68q5.963 0 9.94 3.976 3.972 3.976 4.467 9.94zM229.913 238.113q-5.96.495-10.431 4.471-3.976 3.977-3.976 9.94v6.955q0 5.96 3.976 9.94 4.471 3.969 10.431 4.468h211.68q5.963-.495 9.94-4.471 3.972-3.977 4.467-9.94v-6.955q-.495-5.96-4.471-9.94-3.973-3.969-9.94-4.468zm0 151.55q-6.459.499-10.431 4.475-3.976 3.972-3.976 9.94v6.955q0 5.96 3.976 9.936 4.471 3.976 10.431 3.976h211.68q5.963 0 9.94-3.976 3.972-3.976 4.467-9.94v-6.955q-.495-5.964-4.471-9.94-3.973-3.972-9.94-4.471zM144.95 87.055q-5.965 0-9.94 3.976-3.977 3.976-4.472 9.94v212.167H62.958q-2.982 0-4.97 2.487Q56 317.613 56 320.095q0 2.983 1.988 4.971l95.903 97.887q1.988 1.988 4.966 1.988 2.487 0 4.475-1.988 2.484-1.988 2.979-4.97V100.968q-.495-5.96-4.472-9.937-3.976-3.976-9.94-3.976z"/></svg>