<svg xmlns="http://www.w3.org/2000/svg" width="512" height="512"><path d="M218.858 283.143q0-10.953 5.239-19.525 5.714-9.045 15.715-13.807v-51.429q0-7.143 4.762-11.905 4.763-4.763 11.906-4.763 7.143 0 11.906 4.763 4.762 4.762 5.234 11.905v51.901q9.049 5.235 14.287 14.287 5.239 8.568 5.239 18.57 0 6.666-1.905 11.905-3.81 11.426-13.335 18.093-9.524 6.667-21.43 6.667-16.668 0-27.14-10.477-10.478-10.473-10.478-26.193zm54.286-233.808q-.476-5.715-4.286-9.525-3.81-3.81-9.524-3.81h-6.664q-5.715 0-9.524 3.81-3.81 3.81-4.286 9.525v61.898q4.762-.476 13.81-.476 40 0 74.284 16.191 34.284 16.192 58.092 46.19 23.811 30.003 32.86 69.998 2.857 16.192 2.857 32.384 0 54.762-31.427 98.095-30.955 42.86-84.285 60.473-24.763 7.623-50.952 7.623-48.575 0-89.047-26.192-40.48-26.665-61.91-73.808-13.33-32.383-13.33-65.715 0-43.81 21.903-81.904 22.382-38.574 62.858-62.381l-17.62-29.046-2.854 1.904q-46.67 28.574-72.383 73.812Q56 223.622 56 275.523q0 37.619 14.287 74.76 24.287 58.572 73.811 91.908Q193.622 476 255.048 476q23.335 0 45.241-4.763 46.666-11.43 81.903-39.999 35.237-28.573 54.286-69.049Q456 321.237 456 274.095l-.476-11.43q-4.762-49.524-29.519-89.999-24.287-40.475-64.29-65.235-39.523-25.24-88.57-30.003z"/></svg>